<?xml version="1.0" encoding="UTF-8" standalone="no"?>
<svg
   width="12in"
   height="30in"
   viewBox="0 0 304.8 762"
   version="1.1"
   id="svg150"
   sodipodi:docname="puzzles2.svg"
   inkscape:version="1.1 (c68e22c387, 2021-05-23)"
   xmlns:inkscape="http://www.inkscape.org/namespaces/inkscape"
   xmlns:sodipodi="http://sodipodi.sourceforge.net/DTD/sodipodi-0.dtd"
   xmlns="http://www.w3.org/2000/svg"
   xmlns:svg="http://www.w3.org/2000/svg"
   xmlns:rdf="http://www.w3.org/1999/02/22-rdf-syntax-ns#"
   xmlns:cc="http://creativecommons.org/ns#"
   xmlns:dc="http://purl.org/dc/elements/1.1/">
  <defs
     id="defs154" />
  <sodipodi:namedview
     id="namedview152"
     pagecolor="#ffffff"
     bordercolor="#666666"
     borderopacity="1.0"
     inkscape:pageshadow="2"
     inkscape:pageopacity="0.0"
     inkscape:pagecheckerboard="0"
     showgrid="false"
     inkscape:zoom="0.31375"
     inkscape:cx="603.98407"
     inkscape:cy="862.1514"
     inkscape:window-width="1680"
     inkscape:window-height="987"
     inkscape:window-x="-8"
     inkscape:window-y="-8"
     inkscape:window-maximized="1"
     inkscape:current-layer="svg150"
     units="in"
     showguides="false"
     inkscape:document-units="in" />
  <title
     id="title2">Produce by Acme CAD Converter</title>
  <desc
     id="desc4">Produce by Acme CAD Converter</desc>
  <metadata
     id="metadata156">
    <rdf:RDF>
      <cc:Work
         rdf:about="">
        <dc:title>Produce by Acme CAD Converter</dc:title>
      </cc:Work>
    </rdf:RDF>
  </metadata>
  <path
     id="polyline6"
     style="fill:none;stroke:#000000;stroke-width:0.4826;stroke-miterlimit:4;stroke-dasharray:none"
     d="m 273.59961,510.00391 c -3.68218,0.18686 -7.46883,2.49132 -8.55541,6.14667 -0.79122,2.81025 0.75602,5.78338 3.01953,7.43458 0.41333,0.38075 0.77424,0.80466 1.30932,1.00468 0.97589,0.86684 0.61101,2.32662 0.0176,3.30664 -0.40189,0.72281 -0.0872,1.50174 0.23938,2.17421 3.31979,9.01852 5.74168,18.46054 6.83501,27.97121 0.73381,6.51429 0.83979,13.18845 -0.21195,19.66279 -0.56934,4.17988 -2.1973,8.13077 -2.80384,12.29922 -0.22835,1.90065 0.14621,3.83675 -0.28955,5.64941 -0.28048,1.48036 -1.41687,2.85405 -2.99025,2.97612 -1.29275,0.13006 -2.71293,-0.01 -3.83287,-0.70578 -1.29615,-0.98978 -1.18343,-2.79142 -1.14402,-4.24663 0.0809,-1.45959 0.33947,-3.05782 -0.45296,-4.39835 -1.25462,-2.35133 -3.58701,-3.89591 -5.89694,-5.08783 -3.95637,-1.96701 -8.84515,-2.67342 -12.95591,-0.7553 -2.7479,1.26838 -4.78714,3.70905 -5.95863,6.45931 -1.40099,3.20575 -2.06472,6.84688 -1.3734,10.31022 0.77903,3.76679 3.25575,7.07722 6.55327,9.02769 2.34117,1.43022 5.149,2.38313 7.91157,1.98207 1.99589,-0.51737 3.60449,-2.00309 5.66064,-2.36116 1.94425,-0.43169 4.30996,0.42133 4.99105,2.4186 1.11809,2.74316 0.001,6.16052 -2.52674,7.71118 -2.52238,1.74824 -5.58038,2.39657 -8.40759,3.47576 -1.75278,0.5681 -3.66662,0.005 -5.39705,0.63648 -1.5768,0.55361 -2.75799,2.24909 -2.3461,3.93915 0.51231,2.75164 3.27263,4.57169 5.93692,4.79202 3.38321,0.29231 6.77092,-0.31124 10.08005,-0.962 2.12891,-0.50453 4.32872,-0.93329 6.28073,-1.95826 1.87259,-0.95161 3.22677,-2.67626 5.132,-3.55963 0.67359,-0.34931 1.42631,-0.0777 1.8869,0.47944 1.59072,1.61466 2.85009,3.53853 4.54474,5.06051 2.04551,1.96591 4.74007,3.33983 7.61454,3.39595 2.4977,0.12756 5.06014,-0.84827 6.68432,-2.78406 1.6316,-1.73606 3.22198,-3.51791 5.04958,-5.05391 0.77635,-0.68084 0.32472,-1.76571 0.43662,-2.64764 -0.025,-4.10876 0.0813,-8.22427 -0.0815,-12.32852 -0.45172,-2.21626 -2.89607,-3.40905 -5.00781,-3.19336 -2.06597,0.0833 -4.19368,1.7323 -4.10937,3.93461 -0.0484,1.48481 0.15867,3.3588 -1.2332,4.32849 -0.86921,0.6653 -2.31771,0.65787 -2.88204,-0.40372 -1.83615,-2.52967 -2.18547,-5.78229 -2.54687,-8.77539 -0.10858,-0.96359 -0.0772,-2.26917 0.8873,-2.90199 2.08419,-1.55795 4.78548,-1.7718 7.20417,-2.52456 2.58187,-0.63658 4.71285,-2.29699 6.76009,-3.91135 0.99686,-0.14326 1.1106,-1.32651 1.00788,-2.13125 -0.0109,-5.79087 0.0482,-11.58737 -0.0528,-17.37461 -0.42259,-2.27906 -3.10274,-3.37694 -5.19359,-2.8565 -1.95257,0.34112 -3.38917,2.33435 -3.1352,4.29468 -0.0699,1.80447 -0.0829,3.90597 -1.48738,5.2424 -1.24643,0.81314 -3.12122,0.53924 -4.11261,-0.54991 -1.14708,-1.57786 -0.75957,-3.66348 -0.58838,-5.47188 0.75252,-5.36956 2.79082,-10.52234 2.92334,-15.98464 0.24383,-3.72598 -0.14315,-7.46128 -0.0203,-11.18645 0.25855,-1.466 1.81913,-2.08274 3.03211,-2.61074 1.7781,-0.70329 3.90488,-0.90996 5.46602,-2.20662 1.18746,-0.86231 2.16537,-1.96697 3.16288,-3.03362 -0.0516,-4.46694 0.11422,-8.94426 -0.1049,-13.40442 -0.41353,-2.44254 -3.36038,-4.03715 -5.61219,-2.94467 -1.64797,0.70372 -2.54125,2.5298 -2.55146,4.25167 -0.61657,1.28123 -2.22212,1.50754 -3.47556,1.73068 -1.35565,0.21097 -2.52806,-0.67125 -3.28444,-1.70794 -0.99791,-1.31325 -1.7116,-2.91973 -1.80738,-4.57571 0.0455,-1.40938 1.24785,-2.76438 0.61718,-4.17187 -0.45881,-0.7499 -1.40033,-0.0987 -2.03255,-0.54114 -1.04479,-0.40509 -1.54154,-1.63641 -1.14909,-2.67175 0.47537,-1.77334 1.1607,-3.60585 0.72631,-5.46485 -0.41234,-2.28747 -2.32569,-4.22176 -4.65237,-4.52216 -0.56073,-0.11427 -1.13605,-0.1393 -1.70675,-0.12627 z" />
  <path
     id="polyline8"
     style="fill:none;stroke:#000000;stroke-width:0.478744"
     d="m 273.15313,438.03302 c -0.96379,0.0465 -1.29445,1.14646 -1.07957,1.94856 0.0303,2.51264 0.91913,4.90874 1.14925,7.39363 0.0573,1.59749 -0.89384,3.09753 -2.2923,3.83674 -2.27873,1.42304 -4.96361,2.00598 -7.5762,2.46951 -2.62874,0.36361 -5.69367,-0.10567 -7.4043,-2.33789 -0.89123,-1.11305 -1.26644,-2.51509 -1.63319,-3.85571 -1.02363,-1.99101 -3.42806,-2.53745 -5.46567,-2.78561 -3.32519,-0.36499 -6.96474,0.0615 -9.69673,2.13339 -2.00576,1.70828 -2.4334,4.53017 -2.31085,7.0246 0.11567,2.95351 0.59512,5.84918 0.48115,8.78138 -0.0656,4.21134 -0.55773,8.52569 -1.70506,12.63342 -0.54086,1.70865 -1.12817,3.47776 -2.21099,4.91705 -0.67572,0.467 -1.06736,1.56299 -0.31999,2.14757 0.33783,0.32208 0.89544,0.18841 1.21289,0.21485 2.55832,2.56344 6.27095,3.26514 9.66519,4.04857 6.51113,1.50341 12.49498,4.69693 17.75929,8.70086 1.43866,1.09074 2.61765,2.60004 2.97549,4.39961 0.13671,0.64012 0.28291,1.31386 0.79339,1.77283 3.61902,-1.33992 7.65466,-2.29649 10.36704,-5.245 3.01397,-3.17336 3.40497,-8.66451 0.54011,-12.05538 -2.22615,-2.47755 -6.07622,-2.99033 -9.05568,-1.68327 -1.45573,0.47613 -2.7015,1.49515 -4.18741,1.85279 -2.08278,0.13164 -3.9821,-0.79418 -5.75,-1.85156 -3.0469,-2.00095 -5.11799,-5.57386 -4.87294,-9.26906 0.0474,-1.57448 0.34914,-3.13733 0.89186,-4.63971 0.85443,-2.39257 2.26903,-4.75744 4.62562,-5.91935 2.80993,-1.48366 6.21543,-1.06227 9.0957,-0.0117 2.08723,0.85015 4.14503,2.03616 5.55859,3.82812 0.6454,0.77418 0.5246,1.79266 0.40739,2.7153 -0.19108,2.43256 -0.0317,5.25477 1.86131,7.03489 1.95753,1.77995 4.84075,2.0914 7.35586,1.66584 2.6061,-0.54074 4.57269,-2.86067 5.03169,-5.43361 0.57032,-2.53119 -0.0594,-5.16957 0.63658,-7.68533 0.95955,-3.74726 2.08681,-7.46639 2.62176,-11.30879 0.68029,-4.74471 0.80489,-9.56306 0.52096,-14.34572 -0.33111,-0.93697 -1.43732,-0.93666 -2.25391,-0.82617 -4.94175,-0.0458 -9.88699,-0.006 -14.83008,-0.0195 -0.27659,-0.1491 -0.58651,-0.26909 -0.90625,-0.2461 z" />
  <path
     id="polyline10"
     style="fill:none;stroke:#000000;stroke-width:0.478744"
     d="m 213.16797,494.62695 c -1.01305,0.1368 -1.33383,1.26907 -1.85425,1.98929 -0.75342,1.4436 -1.17733,3.12634 -2.48642,4.2065 -3.35533,3.46455 -7.40983,6.42148 -9.72473,10.75665 -1.0361,1.92203 -1.60677,4.15664 -1.17039,6.33213 0.4861,2.67848 1.46806,5.25119 1.74071,7.97364 0.55274,4.11513 -0.003,8.33417 -1.43656,12.22031 -0.83569,2.60911 -1.35677,5.49084 -0.40075,8.14446 1.05828,3.57003 3.09751,6.79075 5.64816,9.4811 3.22795,3.52445 5.94563,7.46587 8.49985,11.49427 1.69488,2.65964 3.48175,5.29542 5.81503,7.44526 0.35763,0.32617 0.73658,-0.54809 1.06857,-0.77408 1.59579,-1.99192 2.33494,-4.50483 3.05101,-6.91408 1.32761,-4.97679 1.71882,-10.16798 1.59012,-15.30405 -0.0947,-2.85545 -0.66432,-5.71755 -0.3423,-8.57288 0.17937,-1.30001 0.99685,-2.53106 2.29755,-2.91953 2.2042,-0.90535 4.56939,-0.97322 6.89624,-0.58622 0.71865,0.19107 1.67393,0.25925 2.10579,0.92309 0.6584,3.10166 2.69627,5.99552 5.70084,7.19268 3.28004,1.38989 6.97193,0.89307 10.30055,-0.0484 2.85703,-0.7699 5.841,-1.96655 7.67886,-4.39892 1.43834,-2.01357 1.53676,-4.67133 0.91021,-6.99351 -0.65646,-2.67754 -1.03933,-5.46519 -0.58183,-8.20909 0.1887,-1.96138 0.99913,-3.95091 0.38008,-5.9114 -0.65015,-2.46073 -2.69539,-4.29136 -4.99027,-5.2352 -2.91278,-1.27995 -6.12643,-1.71037 -9.2791,-1.85732 -2.58229,-0.0422 -5.4537,0.73368 -6.94774,3.00744 -1.27316,1.76746 -1.38624,4.01583 -1.52049,6.10615 -0.48146,1.68528 -2.44623,2.26507 -4.0135,2.31902 -2.6366,0.1184 -5.51707,-0.59624 -7.36493,-2.58213 -1.16235,-1.27867 -0.9822,-3.11827 -1.31388,-4.70214 -0.90575,-6.50391 -1.75075,-13.2206 -4.90355,-19.09032 -1.12239,-2.07318 -2.59109,-3.96822 -4.39194,-5.4966 -0.32035,-0.003 -0.64069,-0.007 -0.96094,0.004 z" />
  <path
     id="polyline12"
     style="fill:none;stroke:#000000;stroke-width:0.478744"
     d="m 254.54883,371.63867 c -0.47775,0.50812 -0.33313,1.33899 -0.56753,1.97389 -1.04014,4.45283 -3.76738,8.24407 -6.65503,11.66202 -3.28134,3.80241 -6.99036,7.31308 -11.15566,10.08769 -2.43983,1.35343 -5.30913,2.22408 -7.05782,4.54406 -0.24428,0.41401 -0.81028,0.88013 -0.82548,1.27346 3.24439,2.452 5.17984,6.24624 6.33784,10.02153 1.69119,5.29734 2.11883,10.94124 3.02731,16.46079 0.71679,3.09304 3.55733,5.20526 6.48422,6.04815 3.23871,1.03516 7.08737,1.01993 9.94201,-1.01678 1.60504,-1.24242 2.34239,-3.33226 2.21898,-5.31896 0.0585,-1.66761 0.81218,-3.58929 2.56756,-4.0796 2.39607,-0.7682 4.95282,-0.19524 7.36243,0.21046 2.05185,0.42101 4.13308,1.07902 5.64148,2.64696 0.96396,1.05577 1.11418,2.60425 0.70213,3.92803 -0.45824,2.3425 -0.69725,4.75581 -0.55369,7.13252 0.31445,0.87838 1.35595,0.43144 2.0418,0.53711 5.69374,0 11.3875,0 17.08124,0 -0.28515,-10.51399 -2.50454,-20.89187 -5.67874,-30.88844 -0.65776,-2.08516 -1.43122,-4.13497 -2.11422,-6.20922 0.0861,-0.72108 -0.1432,-1.68304 -1.00391,-1.75976 -0.57938,-0.083 -0.97094,0.40565 -1.33594,0.76367 -3.28529,0.27049 -6.80345,0.94454 -9.34961,3.20508 -1.22781,1.15316 -1.7521,2.88886 -1.59566,4.54093 -0.20214,1.67707 -1.94413,2.51578 -3.41167,2.87329 -3.08204,0.84572 -6.251,0.74691 -9.40493,0.37155 -2.85992,-0.61227 -4.6864,-3.36507 -5.30031,-6.06769 -0.87393,-3.46168 -0.65738,-7.23962 0.73842,-10.53165 1.07822,-2.04503 3.51522,-3.03644 5.75038,-2.76383 1.62668,0.10337 3.3035,0.68129 4.3916,1.94119 1.75209,1.57306 4.4097,1.67534 6.55824,0.96944 2.3805,-0.73759 4.17906,-3.0707 4.10119,-5.58987 -0.062,-3.45302 -2.253,-6.42176 -4.64423,-8.72552 -4.03344,-3.74349 -8.91303,-6.51083 -14.05412,-8.428 -0.0794,0.0625 -0.15885,0.125 -0.23828,0.1875 z" />
  <path
     id="polyline14"
     style="fill:none;stroke:#000000;stroke-width:0.478744"
     d="m 219.33789,177.7207 c -4.27749,0.126 -8.51966,1.77791 -11.61689,4.75564 -1.77768,1.6237 -3.07721,3.69179 -4.06748,5.86814 -0.44449,0.82476 -1.45422,0.45723 -2.19973,0.67027 -1.64264,0.19606 -3.22165,1.05326 -4.08719,2.49436 -1.56098,2.21927 -1.6977,5.16788 -0.84015,7.68474 0.89361,3.21964 2.93534,6.03103 3.58049,9.32407 0.0562,1.9505 0.38938,3.89246 1.16262,5.6928 0.73051,1.82626 1.70455,3.67659 3.27395,4.90951 1.0833,0.60006 2.24123,1.06123 3.23641,1.81433 3.15709,2.0183 6.31429,4.10854 9.84395,5.42398 3.85662,1.83114 7.47193,4.10745 10.44934,7.14361 1.59752,1.7156 3.18894,3.92213 2.85843,6.39238 -0.63439,2.0483 -3.43935,2.67834 -5.16117,1.65327 -0.65907,-0.58359 -1.25669,-1.26762 -2.08544,-1.63576 -3.4608,-1.79484 -8.06181,-1.7724 -11.14657,0.78994 -2.48222,2.11027 -3.26277,5.48737 -3.50395,8.59767 -0.38367,4.31655 0.51023,9.00733 3.4733,12.31363 1.83696,1.9938 4.54902,3.04083 7.24161,2.98916 3.686,0.20332 7.58151,0.0661 10.9285,-1.65717 1.95322,-1.0662 3.44954,-3.18793 3.24014,-5.48074 -0.0564,-1.00269 0.55095,-1.89558 1.43936,-2.32195 1.77602,-1.07698 3.80824,-1.39027 5.75977,-1.68946 0.78914,-0.12157 1.68771,0.0415 2.39453,-0.33593 0.59332,-0.54464 0.65236,-1.41288 1.0332,-2.08985 0.70886,-1.98791 0.13479,-4.38124 -1.41601,-5.7832 0.0515,-0.70919 -0.71837,-0.83491 -1.24219,-0.87891 -1.30024,-1.00407 -2.66093,-2.65001 -2.0355,-4.39843 0.86849,-2.40055 3.56333,-3.69795 6.00085,-3.68676 1.27421,0.0185 2.60889,0.89152 2.68693,2.25262 0.25145,2.22371 -1.38061,4.266 -0.80853,6.5064 0.3271,1.84016 1.72181,3.4148 3.53013,3.91659 0.80833,0.28637 1.88136,0.66997 2.52315,-0.12968 0.64961,-0.79522 0.8379,-1.85757 1.42914,-2.69902 0.90798,-1.55572 1.87151,-3.20456 3.35938,-4.26367 1.54727,-0.61881 3.26588,-0.60828 4.8079,-1.25946 2.59671,-0.89618 4.92065,-2.4556 6.93819,-4.30109 -0.009,-6.45727 0.0308,-12.91793 -0.041,-19.37304 -0.35579,-2.11117 -2.14652,-4.12638 -4.41211,-4.03321 -1.76953,-0.0433 -3.39103,1.30493 -3.73472,3.03155 -0.74417,2.25112 -1.12114,4.79784 -2.94707,6.49246 -2.7515,2.94252 -6.46493,5.24046 -10.55099,5.55252 -1.72867,0.13572 -3.09163,-1.11679 -4.41399,-2.03507 -3.78414,-2.98851 -7.07725,-6.5532 -10.16011,-10.24755 -1.78012,-2.24094 -3.60546,-4.50283 -4.86329,-7.08784 -0.62665,-1.42754 -0.0711,-2.99563 0.0806,-4.46599 0.78202,-4.73885 2.35681,-9.34374 2.72828,-14.14633 -0.0109,-1.83155 -0.99403,-3.64629 -2.60583,-4.54139 -0.95244,-1.18763 -0.38434,-2.87617 -1.05413,-4.19292 -0.61462,-1.77972 -2.38602,-2.8666 -4.17909,-3.14896 -1.57812,-0.37204 -3.21116,-0.44747 -4.82697,-0.38626 z" />
  <path
     id="polyline18"
     style="fill:none;stroke:#000000;stroke-width:0.478744"
     d="m 150.87891,516.04883 c -6.29386,0.22935 -12.47551,3.77948 -15.47291,9.38151 -2.98926,5.36936 -3.41573,11.82669 -2.37215,17.78867 1.51039,8.31912 5.83892,15.87822 11.1934,22.32004 1.82499,2.16572 3.71837,4.30846 6.054,5.94142 4.13441,2.98675 8.76744,5.24295 13.54255,7.00643 6.90205,2.49248 14.46653,3.76229 21.74065,2.31388 3.23644,-0.68583 6.45556,-1.86352 9.08155,-3.91559 1.74773,-1.47658 2.80937,-4.08384 1.74072,-6.25824 -1.08587,-2.3533 -3.7427,-3.44523 -6.1907,-3.65171 -1.84816,-0.2718 -4.0995,-0.61977 -5.06516,-2.44399 -0.58282,-1.54069 0.39582,-2.98338 0.50391,-4.51367 0.3392,-2.01416 -0.0427,-4.49195 -1.93946,-5.625 -1.48284,-0.85755 -3.34863,-0.77591 -4.9376,-0.35763 -0.57261,0.41893 -0.79014,1.15308 -1.41431,1.52608 -2.53357,2.32048 -5.78702,3.81726 -9.12371,4.3403 -1.82316,0.22874 -3.82181,0.24414 -5.47555,-0.65524 -0.46488,-0.54711 -1.2899,-0.57723 -1.68623,-1.2279 -0.52813,-0.45108 -0.59249,-1.21535 -0.13246,-1.74179 1.34943,-1.87552 3.13834,-3.38354 4.6156,-5.15643 3.4956,-3.83539 5.82785,-8.79651 6.12953,-14.00917 0.41953,-5.5349 -1.54087,-11.2675 -5.54583,-15.16291 -3.97223,-3.95776 -9.63451,-6.19316 -15.24584,-5.89906 z" />
  <path
     id="polyline22"
     style="fill:none;stroke:#000000;stroke-width:0.478744"
     d="m 113.9375,503.35742 c -2.14134,0.2027 -3.50158,2.1014 -4.75257,3.63575 -3.28167,4.34906 -5.87103,9.18722 -8.08529,14.15338 -0.58282,1.47091 -1.284847,2.96348 -1.437531,4.54486 0.07818,0.54302 0.634531,0.80162 1.125001,0.86132 2.41973,3.39895 3.36014,7.81011 3.34061,11.93359 0.009,7.31962 -2.90178,14.32644 -6.820557,20.3914 -1.678471,2.53894 -3.49577,5.0075 -5.607944,7.20431 -0.970335,0.3554 -0.850575,1.51471 -0.847667,2.3454 -0.296908,0.77531 0.110799,0.85796 0.789296,0.73851 0.938984,0.22016 1.69665,0.89646 2.611873,1.20492 5.919959,2.71787 12.375749,4.34956 18.894539,4.55382 7.27575,0.11116 14.50583,-1.72067 21.07438,-4.78498 0.76636,-0.44344 1.60428,-0.76206 2.37609,-1.16687 0.92551,-0.77346 0.66665,-2.46103 -0.42749,-2.94046 -5.43899,-6.08706 -9.87376,-13.31185 -11.66243,-21.34682 -1.12137,-5.4198 -0.97734,-11.33916 1.5887,-16.3447 0.5167,-1.0595 1.28624,-1.9989 1.91005,-2.96569 0.22157,-1.56771 -0.71443,-2.96983 -1.22268,-4.38756 -2.1407,-4.90398 -4.7675,-9.61489 -7.94341,-13.92497 -1.14918,-1.4538 -2.40558,-3.071 -4.24672,-3.6349 -0.21551,-0.0439 -0.43612,-0.0808 -0.65625,-0.0703 z" />
  <path
     id="polyline24"
     style="fill:none;stroke:#000000;stroke-width:0.478744"
     d="m 75.685547,516.0332 c -7.900442,0.1137 -15.617499,5.30069 -18.263823,12.82325 -2.411027,6.60985 -0.989617,14.27629 3.105222,19.91217 1.913243,2.73662 4.539727,4.87359 6.543366,7.53216 0.445504,0.54084 0.363019,1.30179 -0.177734,1.73633 -0.385207,0.52845 -1.049962,0.69554 -1.526778,1.07156 -1.020834,0.80361 -2.439367,0.84478 -3.692361,0.91614 -3.843845,-0.002 -7.586676,-1.60922 -10.540238,-4.0122 -0.532449,-0.49646 -1.19415,-0.92691 -1.45156,-1.62589 -0.608518,-0.74502 -1.699668,-0.51297 -2.545299,-0.66767 -1.909694,-0.10575 -4.039405,0.90903 -4.577607,2.86407 -0.790369,2.22839 0.03861,4.56194 0.493999,6.76063 0.08918,1.51715 -1.22887,2.64077 -2.569545,3.04394 -2.304699,0.77773 -4.965303,0.50989 -7.007296,2.01712 -1.974848,1.24878 -2.956105,3.9694 -1.899807,6.12198 1.131583,2.60878 3.875714,3.92093 6.357783,4.94672 6.733631,2.66953 14.285831,2.33546 21.19556,0.54651 7.061487,-1.80678 13.799902,-4.96248 19.630337,-9.34424 2.542121,-2.03855 4.544822,-4.63948 6.591796,-7.15039 4.544058,-5.91031 8.13136,-12.71875 9.538155,-20.08688 1.042371,-5.76235 0.712837,-11.96518 -1.92314,-17.27429 -2.272257,-4.61411 -6.590369,-8.14227 -11.569135,-9.43796 -1.855969,-0.51159 -3.788133,-0.73524 -5.711895,-0.69306 z" />
  <path
     id="polyline28"
     style="fill:none;stroke:#000000;stroke-width:0.478744"
     d="m 87.679688,364.50781 c -3.050348,0.0363 -5.662648,1.81176 -8.150391,3.36914 -0.917345,0.0328 -1.364503,0.98472 -2.129844,1.35286 -2.677236,1.94432 -4.720359,4.74397 -5.671645,7.92032 -1.759495,4.97991 -2.826381,10.2427 -2.858614,15.53378 0.02886,2.89671 0.74699,6.1183 3.15708,7.97635 1.896124,1.47458 4.563251,1.53614 6.703174,0.5756 3.620964,-1.50897 6.050053,-4.77956 9.269233,-6.89581 1.124731,-0.84026 2.755045,-0.80934 3.817539,0.12044 1.29516,1.07302 1.604907,2.85513 1.929842,4.41639 0.649966,4.35516 0.118233,8.8237 -0.982612,13.06234 -0.550993,2.13279 -1.88237,3.9507 -3.206992,5.54368 -3.567923,4.42875 -8.220106,8.0582 -10.818177,13.21241 -1.099049,2.32638 -1.214833,5.26444 0.330315,7.42532 1.42333,2.34607 4.267905,4.09982 7.061641,3.37963 3.333898,-0.74288 5.753353,-3.34038 8.244398,-5.48626 1.239811,-1.1625 2.823493,-2.48708 4.650756,-2.05306 1.154939,0.29904 1.193379,1.71812 1.253849,2.69605 -0.0172,1.47933 -0.390643,2.95395 -1.229102,4.10466 -2.0918,2.92531 -5.46555,4.66821 -8.850571,5.65189 -2.534759,0.74655 -5.163132,0.94315 -7.760288,0.99671 -5.119175,0.435 -9.724544,3.00994 -14.007719,5.66513 -4.203973,2.68731 -8.223218,5.70289 -11.814372,9.17071 -3.898231,4.26606 -5.495428,10.09909 -5.966583,15.73847 -0.733336,9.01386 1.216778,18.20364 5.356287,26.22939 0.744954,1.42828 1.752291,2.7083 2.68842,3.99699 0.291322,0.57129 0.978889,0.7266 1.334607,1.25423 4.011775,3.79186 9.633534,6.03663 15.178397,5.49883 2.685374,-0.3609 5.390879,-1.76992 6.776683,-4.16533 0.787988,-1.51382 0.425932,-3.39262 -0.627744,-4.68408 -1.772587,-2.49236 -4.26802,-4.36495 -6.035075,-6.86695 -2.496545,-3.2983 -4.040471,-7.37623 -4.038512,-11.50267 -0.136742,-4.69645 1.889347,-9.40878 5.481143,-12.45698 3.391469,-3.01927 8.110651,-4.54245 12.53597,-4.17861 3.624322,0.26642 7.363385,1.79296 9.926427,4.49665 0.743047,0.64969 1.245962,1.62207 2.128262,2.07561 0.93869,0.28635 1.54663,-0.70958 1.62454,-1.51532 1.31624,-4.33023 3.67373,-8.35858 5.95749,-12.28546 1.38781,-2.26148 2.85478,-4.53726 4.84375,-6.32031 0.41187,-0.23936 0.70845,0.42516 1.04137,0.59804 1.94159,1.95703 3.34319,4.36945 4.78858,6.69756 2.00738,3.39398 3.83282,6.9207 5.18468,10.62908 0.30101,0.92098 0.64743,2.11802 1.65139,2.46399 0.83686,0.17642 1.3927,-0.68725 1.47851,-1.41602 2.8406,-3.59933 7.4899,-5.48703 12.01913,-5.46572 5.92662,-0.0544 11.79645,3.22173 14.68721,8.42709 2.83526,4.89859 2.58357,11.18415 0.16437,16.23223 -1.67483,3.67401 -4.73829,6.39475 -7.38952,9.3433 -1.25653,1.37879 -2.40041,3.36918 -1.61254,5.26061 0.83045,2.10885 2.92405,3.42249 4.96729,4.17515 3.55453,1.12648 7.42726,0.41556 10.8164,-0.93164 3.02563,-1.2408 5.7459,-3.21599 7.87696,-5.68555 0.73811,-0.31751 0.81991,-1.23124 1.3361,-1.76964 3.13763,-4.86686 4.87721,-10.49915 5.95333,-16.14913 1.19598,-6.84058 1.04676,-14.04237 -1.22591,-20.65019 -0.9909,-2.78254 -2.53649,-5.37782 -4.54399,-7.54041 -0.20749,-0.70198 -1.08176,-0.69599 -1.45666,-1.255 -5.58955,-4.73869 -11.62134,-9.14088 -18.48208,-11.8421 -2.58144,-0.99205 -5.34897,-1.43672 -8.10899,-1.39354 -3.89859,-0.21685 -7.91215,-1.42923 -10.99915,-3.58749 -2.25176,-1.53813 -4.30666,-3.92992 -4.21518,-6.81155 -0.025,-1.03018 -0.005,-2.5337 1.18122,-2.90515 1.71912,-0.49306 3.30958,0.73437 4.45644,1.81039 2.59147,2.2646 5.15684,4.98159 8.65895,5.76105 2.42351,0.48462 4.8993,-0.75063 6.35059,-2.67361 1.63646,-1.97988 2.22518,-4.82919 1.21199,-7.23217 -1.32,-3.69909 -4.23295,-6.47791 -6.79109,-9.34096 -2.6457,-2.86072 -5.53401,-5.57494 -7.17604,-9.16151 -0.98117,-2.60385 -1.33581,-5.58328 -1.5968,-8.41524 -0.20876,-3.193 -0.11401,-6.58601 1.4043,-9.47851 0.87044,-1.40014 2.86927,-2.01967 4.28516,-1.06641 3.24396,1.99692 5.61234,5.22149 9.09765,6.86328 2.05111,0.98773 4.61402,1.21436 6.60751,-0.0386 2.47478,-1.47741 3.47703,-4.49657 3.63796,-7.23529 0.21351,-4.23243 -0.51141,-8.46156 -1.53548,-12.55408 -0.70222,-2.50735 -1.448,-5.04303 -2.6963,-7.33971 -1.62716,-2.82441 -4.25191,-4.92247 -7.08947,-6.44547 -2.45173,-1.57261 -5.21937,-3.22323 -8.2543,-2.86928 -3.71674,0.594 -6.14646,4.96265 -4.88061,8.4684 0.51033,1.66163 1.63387,3.03579 2.84546,4.24058 0.96744,1.3932 0.0323,3.47655 -1.58558,3.84205 -2.26204,0.80817 -4.76398,0.59297 -7.06677,0.072 -1.26231,-0.30788 -2.74447,-1.30295 -2.45898,-2.78516 0.34237,-1.80849 1.97794,-3.01441 2.39258,-4.80664 0.84293,-2.51221 0.0297,-5.58953 -2.25223,-7.05928 -2.47993,-1.61289 -5.6589,-1.25203 -8.34376,-0.40834 -1.25069,0.32584 -2.32716,1.09233 -3.2712,1.94223 -0.91953,0.47864 -2.02619,0.0235 -2.63,-0.73876 -1.75737,-1.36847 -4.06623,-1.66576 -6.21019,-1.91656 -2.61964,-0.16538 -5.53104,1.04978 -6.573872,3.60063 -1.125404,2.60152 -0.21028,5.64426 1.550782,7.73047 0.71789,1.04328 1.10607,2.774 -0.125,3.60742 -1.516443,1.16333 -3.538389,1.20898 -5.2754,1.27923 -1.789659,0.0114 -3.943884,-0.17277 -5.100651,-1.72528 -0.693233,-1.15024 -0.270411,-2.71344 0.822906,-3.45041 1.999962,-2.03964 3.132613,-5.27639 1.871586,-7.99276 -0.90299,-2.18369 -3.050391,-3.99539 -5.494223,-3.96039 z" />
  <path
     id="polyline30"
     style="fill:none;stroke:#000000;stroke-width:0.478744"
     d="m 211.54688,402.82031 c -2.89853,0.0454 -5.24795,3.06923 -4.73333,5.87965 0.36242,1.07695 0.85424,2.10719 1.12043,3.22011 1.23305,4.12917 2.05553,8.29841 2.02305,12.63266 -0.049,1.98443 -0.37051,4.32462 -2.12851,5.54363 -1.68247,0.92409 -3.65287,0.0649 -5.06267,-0.97418 -2.85685,-1.93973 -5.07163,-4.7693 -8.2053,-6.30382 -2.6696,-1.14099 -6.03172,-0.12483 -7.60547,2.32226 -1.95787,2.95999 -2.14524,6.66219 -2.13672,10.10547 0.10384,3.63565 0.67939,7.27992 1.81864,10.7342 1.9401,4.54529 5.73951,7.86521 8.95751,11.48623 2.08372,2.2769 4.24737,4.5571 5.21799,7.53153 0.56401,2.07555 -0.78585,4.31505 -2.71094,5.10937 -1.47479,0.5371 -2.94999,-0.38564 -4.16211,-1.14648 -2.381,-1.61975 -4.22926,-3.91094 -6.66279,-5.45427 -2.11983,-1.29853 -5.18178,-1.51221 -7.10088,0.26872 -1.66696,1.666 -1.79808,4.26768 -1.45759,6.4697 0.4894,3.69304 3.30803,6.58244 6.3615,8.45478 4.26725,2.68127 9.37992,3.65757 14.36136,3.66586 4.94464,0.55084 9.30752,3.20308 13.42512,5.81119 3.1585,2.08272 6.15843,4.39981 9.01274,6.88167 -0.11918,0.78778 0.32032,1.83381 1.25586,1.73438 0.96368,-0.28596 1.43931,-1.36393 2.05985,-2.09589 2.29047,-3.55118 3.56054,-7.62691 4.90482,-11.59959 2.43267,-7.64393 4.1814,-15.51177 5.18765,-23.47182 0.71996,-6.4521 0.82473,-12.95813 0.82622,-19.44553 -0.0915,-7.04666 -0.64073,-14.2021 -2.93271,-20.91231 -0.45378,-1.28428 -1.01463,-2.54258 -1.44818,-3.81861 -0.89583,-1.02288 -2.08203,-1.91205 -3.49414,-2 -1.71273,-0.20189 -3.48335,0.67208 -4.30106,2.20446 -0.23282,0.39015 -0.80622,1.10893 -1.20089,0.47132 -0.81902,-1.08062 -0.933,-2.50152 -1.47893,-3.71747 -1.19988,-3.50354 -3.12619,-7.10197 -6.53619,-8.87425 -0.97603,-0.4927 -2.07868,-0.76049 -3.17433,-0.71297 z" />
  <path
     id="polyline32"
     style="fill:none;stroke:#000000;stroke-width:0.478744"
     d="m 194.80078,366.63672 c -4.43587,0.033 -8.886,-0.0962 -13.30813,0.30935 -2.44832,0.31462 -5.18111,0.56444 -7.01687,2.41477 -1.76012,1.72611 -2.0044,4.49838 -1.38234,6.77638 0.67178,2.34931 2.29432,4.39493 4.37726,5.65966 1.18051,0.20854 2.33805,-0.38947 3.52344,-0.11329 1.33072,0.16391 2.61098,1.1924 2.62109,2.61329 0.13476,1.59803 -0.9222,2.89976 -1.75938,4.14021 -1.21763,2.02615 -1.43339,4.91111 0.28335,6.72931 1.99159,2.23362 5.17856,2.62974 8.00433,2.691 2.72705,0.0592 5.79087,-0.58476 7.54425,-2.85368 1.70228,-2.26484 1.35338,-5.81298 -0.87333,-7.61114 -1.25767,-1.23019 -2.164,-3.2444 -1.21093,-4.91602 0.55316,-1.17298 1.88297,-2.08383 3.20454,-1.67007 2.49951,0.41628 4.4359,2.21467 6.63335,3.29703 3.34897,0.49942 7.1538,-0.0812 9.60937,-2.58985 1.52588,-1.706 1.62953,-4.33753 0.52831,-6.29283 -1.054,-2.10143 -2.60918,-3.93086 -4.32777,-5.5167 -2.20994,-1.89438 -5.11893,-2.72461 -7.98164,-2.87886 -2.81632,-0.24533 -5.64483,-0.20565 -8.4689,-0.18856 z" />
  <path
     id="polyline34"
     style="fill:none;stroke:#000000;stroke-width:0.478744"
     d="m 39.943359,417.34961 c -3.33693,0.0288 -6.770152,-0.028 -9.972824,1.03594 -2.707923,0.94736 -4.860627,2.99541 -6.482158,5.30786 -1.442849,1.86548 -2.658227,4.3259 -1.892767,6.71731 0.821084,2.46215 3.363677,3.83182 5.777418,4.29464 1.825202,0.39709 3.722616,0.33706 5.55666,0.029 0.671527,-0.92734 1.816402,-1.30205 2.726101,-1.94307 1.385498,-0.74164 2.962244,-1.57634 4.578586,-1.26201 2.017204,0.67684 2.866296,3.38948 1.692574,5.14346 -0.780957,1.47034 -2.429667,2.37341 -2.793388,4.07973 -0.769476,2.53439 0.450588,5.54816 2.887923,6.67329 2.833679,1.48666 6.19497,1.30816 9.249987,0.75963 2.364566,-0.48054 4.845526,-1.97136 5.394545,-4.48424 0.491976,-2.23142 -0.574501,-4.43681 -1.931641,-6.14648 -0.901935,-1.37747 -1.051553,-3.55557 0.441406,-4.58985 1.360266,-0.91452 3.066583,-0.57653 4.574491,-0.38963 1.11993,-0.13805 1.837466,-1.1556 2.635098,-1.8467 2.329947,-2.45261 3.333509,-6.40734 1.695984,-9.49251 -0.935934,-1.72473 -2.79304,-2.67094 -4.649334,-3.06191 -3.408466,-0.79322 -6.940365,-0.70546 -10.417939,-0.81267 -3.023374,-0.0336 -6.047213,-0.0141 -9.070722,-0.0118 z" />
  <path
     id="polyline36"
     style="fill:none;stroke:#000000;stroke-width:0.478744"
     d="m 23.410676,458.19563 c -3.150544,0.22617 -5.590456,2.65482 -7.160156,5.21289 -1.544966,2.47306 -2.127756,5.36859 -3.314454,7.98633 -0.256057,0.47776 -0.857632,0.46894 -1.064453,-0.0449 -0.73203,-1.03736 -1.582379,-2.14778 -2.9056349,-2.41086 -2.3288711,-0.6655 -5.0211924,0.83918 -5.6208002,3.20082 -3.18796501,7.35534 -3.77300862,15.48968 -3.90993152,23.4096 -0.0401081,6.1703 0.12450697,12.35066 0.7213969,18.49329 1.09925612,9.75976 3.42401892,19.37196 6.72076052,28.61699 1.0755317,2.81965 2.1427244,5.72716 4.0117872,8.13157 0.788156,0.8923 1.717406,1.64435 2.585938,2.45508 0.08735,-0.94381 0.168746,-1.8878 0.185547,-2.83594 5.588309,-4.70974 11.558803,-9.21123 18.466425,-11.78268 1.884616,-0.65942 4.082892,-1.04085 6.164619,-0.96788 5.801876,-0.28787 11.77938,-2.27839 15.845943,-6.57774 1.941417,-2.05243 3.007301,-4.8861 2.835513,-7.71272 -0.02233,-2.11028 -1.024691,-4.48373 -3.175782,-5.17969 -2.413133,-0.84588 -5.116175,0.0495 -6.954032,1.7199 -2.497713,1.98372 -4.62444,4.66327 -7.761184,5.65924 -1.504517,0.36738 -2.931476,-0.61177 -3.704705,-1.84007 -0.870937,-1.16192 -0.998077,-2.74063 -0.396485,-4.05274 1.154008,-2.92202 3.487261,-5.1381 5.519958,-7.45612 3.052585,-3.29551 6.438674,-6.48293 8.308167,-10.64544 1.17514,-3.04289 1.561941,-6.32323 1.852764,-9.55104 0.236871,-3.71366 0.04413,-7.64061 -1.722933,-10.99484 -1.370083,-2.50822 -4.526191,-3.95371 -7.290296,-3.05536 -2.132451,0.64857 -3.739327,2.30101 -5.405793,3.69547 -1.822541,1.55332 -3.610275,3.365 -5.960032,4.07053 -1.31525,0.36933 -2.882836,-0.0476 -3.579248,-1.29243 -1.367776,-2.13015 -1.151224,-4.80484 -1.027099,-7.22078 0.349382,-4.50856 1.452693,-8.97161 3.076494,-13.20957 0.278199,-1.66536 -0.484897,-3.42536 -1.699716,-4.56503 -0.974581,-0.9244 -2.315864,-1.33214 -3.642578,-1.25586 z" />
  <path
     id="polyline104"
     style="fill:none;stroke:#000000;stroke-width:0.478744"
     d="m 218.72852,80.09375 c -0.66028,0.354937 -0.24955,1.244597 -0.34631,1.843524 0.19373,3.873331 0.48726,7.749776 0.28523,11.635846 -0.18813,4.020781 -0.60981,8.12551 -2.14547,11.88158 -1.11012,2.73378 -3.15631,5.21012 -5.99506,6.23087 -1.72315,0.68937 -3.49304,1.00057 -5.27613,0.99216 -2.21623,0.0711 -4.60013,-0.76821 -5.83331,-2.70493 -1.71236,-2.03773 -3.81864,-3.76517 -6.1527,-5.03901 -2.52529,-1.16206 -5.53435,-0.36779 -7.63586,1.30059 -3.26213,2.43889 -4.92779,6.35675 -6.11914,10.12695 -1.32194,4.48737 -1.82373,9.2141 -1.56388,13.88036 0.32172,3.07421 1.01729,6.16415 2.41577,8.93545 1.53137,2.76173 4.56122,4.62052 7.73325,4.63231 2.18022,0.1292 4.44071,-0.44135 6.11407,-1.89343 1.78848,-1.47282 3.37602,-3.17106 5.03134,-4.78562 1.43847,-1.62066 2.98384,-3.34268 5.16254,-3.91715 2.57528,-0.81414 5.90424,-0.21654 7.3747,2.23718 1.44068,2.59372 0.91993,5.8448 -0.40061,8.37769 -1.61374,2.97286 -3.78131,5.62734 -6.16826,8.013 -2.95986,2.90303 -6.21507,5.48718 -9.32288,8.2206 -0.52214,0.31639 -1.20496,-0.0173 -1.75637,0.31252 -0.64666,0.27366 -1.28278,0.5733 -1.92436,0.86014 1.64548,0.96422 3.3145,1.90137 5.09006,2.59972 2.28482,1.23639 4.42014,2.9764 7.0868,3.28394 1.83313,0.3984 3.79234,0.45545 5.4579,1.42102 1.05014,1.03324 1.35082,2.57978 2.24849,3.73248 1.19576,1.75155 3.26572,2.53169 5.1152,3.38677 2.63765,1.1587 5.50998,1.62916 8.37459,1.7206 2.58775,0.10916 5.18809,0.20276 7.76368,-0.14649 1.41881,-0.18998 2.85445,-0.0547 4.20187,0.43088 0.45909,0.0764 0.70141,0.67324 1.25516,0.49295 0.61005,-0.0612 1.34989,0.14004 1.79492,-0.44141 0.57722,-0.634 0.28939,-1.53812 0.4828,-2.30771 0.35076,-2.6278 -0.35145,-5.5148 -2.37981,-7.3281 -1.19903,-1.21663 -2.73649,-2.12798 -3.68697,-3.57122 -0.20222,-0.41127 -0.38632,-0.72107 0.21947,-0.69673 3.87886,-0.86373 7.51687,-2.6527 10.64062,-5.09947 2.46418,-1.79729 4.86028,-3.89252 6.15522,-6.71794 1.32119,-2.62368 2.21841,-5.43059 3.11403,-8.21905 0.41103,-1.00903 0.87069,-2.23047 2.03506,-2.55024 2.24146,-1.0622 4.71233,-0.45477 7.07622,-0.41851 1.36815,-0.0283 2.95223,-0.0482 4.02109,-1.02071 0.71355,-0.87736 0.74562,-2.09668 0.97865,-3.16293 0.72327,-5.96716 1.10979,-12.00422 0.60019,-18.0066 -0.19153,-2.58904 -0.2799,-5.21239 -0.85845,-7.74887 -0.30712,-1.07015 -1.41729,-1.55741 -2.44857,-1.6094 -2.71986,-0.44768 -5.56644,-0.20752 -8.19986,-1.10532 -1.52335,-0.79893 -2.34285,-2.41687 -3.5005,-3.62372 -3.02852,-3.48583 -6.07588,-6.957233 -9.17106,-10.385742 -2.44098,-2.70271 -5.21193,-5.119749 -8.36021,-6.967461 -3.62205,-2.237944 -7.51775,-4.096166 -11.62507,-5.242333 -2.18934,-0.522954 -4.58973,-0.557696 -6.51082,-1.860518 -0.1563,-0.01538 -0.30958,-0.09623 -0.44726,0.02148 z" />
  <path
     id="polyline108"
     style="fill:none;stroke:#000000;stroke-width:0.478744"
     d="m 167.8418,89.484375 c -11.08657,0.08644 -22.17559,0.246505 -33.25977,0.369141 -0.77944,0.173633 -1.6304,0.372143 -2.28711,0.792346 -0.85356,1.302851 -1.04709,2.899368 -0.84269,4.41701 0.0375,0.543604 0.0528,1.101663 -0.10848,1.628534 -5.47312,-0.361081 -10.87623,-1.468376 -16.3582,-1.695312 -4.15039,0.01093 -8.21103,1.011419 -12.25702,1.826796 -0.94954,0.213753 -1.90102,0.428449 -2.830092,0.722032 -0.499492,-0.8395 -1.885013,-0.604918 -2.09375,0.349609 -0.162729,0.889463 -0.118266,1.747056 -0.3093,2.642269 -0.501961,3.55519 -0.713373,7.19219 -0.239391,10.76312 0.360197,2.61307 1.272669,5.16534 2.849423,7.29589 2.27259,3.5395 4.55447,7.1415 6.36123,10.96604 1.24039,2.85974 1.96549,5.86402 1.61759,9.01015 -0.16172,1.11274 -0.52123,2.18804 -0.81336,3.27139 -0.51536,1.41003 -1.33625,2.8046 -2.55604,3.69567 -0.66739,0.15237 -0.9656,0.82907 -1.63867,0.98242 -2.27679,1.02447 -5.270257,1.03751 -7.117544,-0.84413 -1.811513,-1.75859 -2.929004,-4.13728 -3.497688,-6.56407 -0.605336,-2.2997 -1.774293,-4.41515 -3.168098,-6.32554 -1.397239,-1.93307 -3.642407,-3.19111 -6.027342,-3.32734 -3.592593,-0.29403 -7.292575,1.58294 -9.057825,4.75065 -4.236051,6.72427 -6.818496,14.74547 -6.100251,22.74598 0.234144,3.41419 1.361885,6.76658 3.365775,9.55215 2.072256,2.96121 5.08124,5.52252 8.710397,6.21543 2.697504,0.53646 5.374947,-0.62707 7.501466,-2.2127 1.481642,-1.05984 2.968694,-2.13536 4.156281,-3.53232 0.702226,-0.83773 1.728552,-1.37406 2.838699,-1.29128 2.851633,0.12824 5.55136,2.12503 6.44496,4.85271 1.00705,3.13383 1.09945,6.49172 0.63736,9.73384 -0.62488,5.82178 -1.787498,11.66834 -3.894225,17.19272 -0.28289,0.89646 -1.031892,2.00597 -1.014619,3.09687 0.173471,1.15007 1.509154,1.49095 2.498982,1.36737 8.847852,0.38698 17.662402,-1.07969 26.238902,-3.13261 5.5722,-1.37327 11.09158,-3.19328 16.22,-5.73178 2.3426,-1.0704 4.64666,-2.15983 7.08925,-2.76622 1.06849,-0.33074 2.17697,-0.3784 3.28294,-0.2934 0.75853,0.0115 1.1624,-0.82591 1.75789,-1.20532 5.02333,-4.38531 10.46809,-8.50062 14.17858,-14.14085 1.90983,-2.69653 3.37283,-5.88664 3.22707,-9.25888 -0.0107,-2.81001 -1.17123,-5.73867 -3.57796,-7.33126 -3.29607,-2.31489 -7.89245,-2.11431 -11.26748,-0.0719 -2.17492,1.30497 -3.66104,3.43027 -5.50001,5.13041 -1.30766,1.26017 -2.56815,2.61661 -4.09631,3.60941 -1.82996,0.91726 -4.12136,0.7953 -5.92905,-0.11132 -2.04845,-1.13402 -3.0215,-3.42694 -3.51098,-5.60639 -0.85102,-3.05225 -1.1114,-6.25815 -0.73514,-9.40545 0.22884,-3.03371 0.7827,-6.03663 1.75514,-8.82328 1.07319,-2.97752 2.51864,-6.13592 5.35159,-7.8148 1.32759,-0.83216 3.16819,-1.03319 4.43869,0.0223 1.87955,1.20533 3.52345,2.74078 4.9011,4.4929 1.90159,2.28609 5.02924,3.11806 7.90214,3.07874 3.93114,-0.10052 8.00909,-1.36986 10.77754,-4.27744 2.84955,-2.97894 4.17804,-7.06656 4.85539,-11.05334 1.01014,-6.01786 0.79884,-12.14775 0.41487,-18.21236 -0.06,-0.54963 0.2072,-1.38836 -0.53877,-1.57581 -0.48665,-0.048 -0.98138,-0.0551 -1.31059,-0.49117 -1.31514,-1.21675 -2.37383,-2.70861 -3.25777,-4.26078 -0.9854,-1.91237 -0.84478,-4.139268 -1.01753,-6.225071 -0.1428,-1.891075 -0.10055,-3.857623 -0.74614,-5.661646 -0.39494,-0.987516 -1.37316,-1.501264 -2.41406,-1.330078 z" />
  <path
     id="polyline110"
     style="fill:none;stroke:#000000;stroke-width:0.478744"
     d="m 51.837891,98.115234 c -4.291054,0.08846 -8.58824,0.0037 -12.881634,0.02576 -5.551054,0.01016 -11.106304,-0.01345 -16.654731,0.04005 -1.651951,0.208421 -3.018106,1.591639 -3.24285,3.236957 -0.406392,1.99453 -0.188841,4.05375 -0.574023,6.05379 -0.513416,3.94818 -0.780703,7.96008 -2.380875,11.68137 -1.100806,2.8237 -2.606444,5.46692 -4.331802,7.9519 -3.5502055,5.66515 -6.3061247,11.81854 -8.316062,18.18998 -0.9677181,3.09896 -1.4804668,6.32908 -1.5263429,9.57466 -0.399196,7.72247 0.2326546,15.68483 3.3653869,22.84142 2.9407765,6.91189 8.100492,12.61879 13.804145,17.39104 8.629968,7.13481 19.189478,11.80216 30.188145,13.7746 1.857119,0.31326 3.732927,0.66081 5.617049,0.67988 0.818829,-0.16547 1.009604,-1.03538 1.16587,-1.71259 2.883641,-6.87588 4.287778,-14.28306 4.933877,-21.68292 0.199611,-3.36237 -0.07046,-6.85023 -1.418384,-9.97005 -1.509501,-3.42326 -5.073747,-5.7504 -8.77316,-6.00163 -1.984419,-0.12164 -4.030314,0.6248 -5.313499,2.1787 -1.476289,1.69108 -3.333044,3.01008 -5.249001,4.15724 -1.499367,0.98027 -3.441716,1.05324 -5.064068,0.34042 -3.286409,-1.47375 -5.71135,-4.49177 -7.013002,-7.79626 -1.17014,-2.98771 -1.264783,-6.37537 -1.045977,-9.47385 0.486736,-5.66894 2.595283,-11.26619 5.730283,-16.13918 1.528822,-2.78896 5.389232,-4.05772 8.213076,-2.52879 1.751872,1.08864 2.655818,3.05552 3.546876,4.83399 0.867464,1.86163 1.016626,3.97388 2.051531,5.76712 1.077619,2.00283 2.431794,3.98731 4.382281,5.227 2.881773,1.80971 6.640646,1.62674 9.612988,0.13296 2.458821,-1.15325 4.342571,-3.32544 5.286448,-5.85723 1.550918,-3.69126 1.62897,-7.89181 0.501959,-11.71153 -1.189248,-4.37196 -3.746177,-8.17186 -6.039553,-12.02046 -1.033347,-1.78787 -2.358707,-3.4108 -3.207764,-5.29958 -1.444804,-3.52945 -1.246957,-7.48805 -0.95554,-11.17499 0.09954,-1.60634 0.552729,-3.22741 0.55515,-4.87579 -0.266132,-0.44926 -0.4116,-0.85581 -0.291016,-1.4082 0.189733,-1.57415 0.394954,-3.35936 -0.666587,-4.693905 -0.885878,-1.264044 -2.512035,-1.816758 -4.009194,-1.731881 z" />
  <path
     id="polyline112"
     style="fill:none;stroke:#000000;stroke-width:0.478744"
     d="m 183.52734,222.94922 c -2.32764,0.11988 -4.88487,0.56084 -6.57422,2.30664 -1.03546,1.48784 -0.24247,3.32041 0.2793,4.83789 0.27789,0.68405 0.49777,1.62911 -0.22997,2.11519 -1.38301,1.43903 -3.37514,2.62129 -3.74502,4.74033 -0.18299,1.81445 1.46657,3.1417 3.00162,3.71763 1.98521,0.91406 4.30237,0.97327 6.17258,2.13453 2.03771,1.67434 3.02806,4.24384 3.85732,6.66887 0.78003,2.60503 0.46295,5.43859 -0.0954,7.99283 -0.51819,2.16173 -1.48856,4.23806 -2.95919,5.91773 -0.0704,-1.0422 -0.95478,-1.89302 -2.00271,-1.90111 -2.75167,-0.27096 -5.16871,1.42732 -7.21664,3.05173 -1.93552,1.46799 -3.6768,3.24028 -6.03651,3.9568 -0.86103,0.25088 -1.84275,-0.03 -2.35352,-0.78906 -0.66573,-0.7956 -2.04478,-0.14568 -1.96289,0.85156 0.0552,0.45403 -0.003,0.86362 -0.31509,1.21193 -1.90125,3.5043 -2.79519,7.44664 -3.25913,11.37791 -0.42227,2.43659 -1.61119,5.07512 -4.01758,6.09571 -0.90512,0.34257 -1.83474,-0.15744 -2.33941,-0.91276 -1.49482,-1.69962 -2.10755,-3.92478 -3.16254,-5.87826 -1.74756,-2.65649 -5.63222,-3.25727 -8.30089,-1.68788 -3.03072,1.6588 -4.70585,4.88459 -6.05729,7.92354 -2.92339,6.86406 -3.90328,14.5067 -3.113,21.9081 0.51147,4.23076 1.74325,8.53415 4.41539,11.92635 1.93432,2.32478 4.92064,4.09862 8.02775,3.74156 0.62291,-0.13671 1.25954,-0.13028 1.89327,-0.11831 -0.29054,-0.62934 0.31514,-0.73155 0.64424,-1.09624 2.30608,-1.92154 2.7575,-5.35267 5.36456,-6.97469 1.35449,-0.84214 3.19107,-0.50742 4.25097,0.65882 1.97854,1.96728 2.0762,4.93857 2.21323,7.55111 0.24034,5.98215 -0.58667,11.94029 -1.77964,17.80827 0.36863,1.11121 1.62045,1.27345 2.54092,1.68348 4.26036,2.0603 8.16485,4.77228 12.44558,6.79253 4.96888,2.46679 10.46352,4.2588 16.076,3.89899 10.77462,-0.41232 21.31115,-5.02175 28.93337,-12.64673 7.64758,-7.58344 12.35976,-18.06914 12.81201,-28.84215 0.28807,-6.02711 -0.85224,-12.07804 -3.11567,-17.66089 -3.10168,-7.88614 -8.04551,-14.85814 -13.21762,-21.505 -2.52588,-3.41158 -5.0184,-6.96562 -6.41904,-11.04462 -0.89869,-3.20492 -1.05841,-6.55707 -1.3621,-9.85628 -0.4559,-5.65653 -0.55124,-11.39205 -1.90269,-16.92918 -1.0612,-4.00114 -3.86325,-7.34587 -7.1718,-9.73276 -1.79615,-1.31792 -3.89148,-2.16835 -6.08086,-2.55907 -2.67685,-0.49783 -5.40981,-0.84967 -8.13771,-0.73504 z" />
  <path
     id="polyline116"
     style="fill:none;stroke:#000000;stroke-width:0.478744"
     d="m 130.61328,224.60938 c -11.71625,0.0385 -23.43674,-0.001 -35.150389,0.041 -1.595139,0.26115 -2.253905,1.96791 -2.523773,3.36627 -0.279461,1.14135 -0.286352,2.52844 -1.336562,3.2828 -1.234551,1.15451 -2.605921,2.63419 -2.333692,4.47029 0.23443,2.98098 1.928997,5.56257 2.8554,8.33559 0.292574,0.85196 0.647557,1.80355 0.408939,2.69935 -1.018811,0.96039 -2.563548,1.19671 -3.894531,0.83398 -2.55054,-0.48899 -5.282581,-1.61955 -7.878906,-0.65234 -1.634608,0.52641 -3.095378,1.1978 -4.857422,1.17969 -1.049075,0.29289 -1.148523,1.48113 -1.291476,2.37785 -0.778143,3.90125 -2.438101,7.52468 -4.792276,10.73505 -2.605657,3.87858 -4.875186,8.31112 -4.799061,13.09999 0.06836,1.79565 1.364792,3.52134 3.187291,3.81737 3.076503,0.72439 6.400351,-0.63293 8.453593,-2.95387 0.581563,-0.65481 1.405942,-1.40263 2.344413,-0.97973 0.989579,0.35821 1.808022,1.05917 2.45611,1.86623 1.050841,0.61086 1.658629,1.7875 2.277743,2.81122 1.747546,3.24539 2.251488,6.98819 2.30081,10.56216 0.04333,6.15663 -1.686762,12.32957 -4.546256,17.79571 -1.380549,2.56149 -3.514779,5.00696 -6.425606,5.76481 -1.770977,0.38751 -3.30321,-0.96214 -4.216741,-2.33281 -0.871118,-1.26071 -1.894195,-2.66679 -3.529458,-2.9016 -2.184173,-0.45809 -4.225334,1.33453 -4.735401,3.37521 -0.785707,2.91832 -0.22522,6.00498 0.511224,8.87375 1.03185,3.84431 2.639548,7.472 3.310168,11.35447 0.96131,4.23312 1.663942,8.73432 0.358084,12.97688 -0.955638,3.38359 -2.733025,6.48667 -5.239162,8.90935 -0.330214,0.43669 -1.053951,0.27543 -1.299781,0.85186 -0.40515,0.69499 -0.176661,1.5176 -0.226562,2.27735 0.01404,0.9251 1.217433,1.3781 1.873047,0.75 8.95884,3.36166 18.746222,4.72269 28.263276,3.50474 9.220774,-1.2992 17.787757,-5.34337 25.711167,-10.07553 3.712,-2.1531 7.3169,-4.5683 11.33024,-6.1382 1.1069,-0.42879 2.30553,-0.48552 3.46485,-0.31445 0.82107,-0.0929 1.33789,-0.93707 1.19755,-1.71363 1.33928,-7.13957 2.26752,-14.49343 1.21651,-21.73559 -0.56293,-3.07047 -2.44672,-6.151 -5.52344,-7.19531 -2.51983,-0.86347 -5.38317,0.10078 -7.13672,2.03711 -1.62817,1.70393 -2.32589,4.00647 -3.87304,5.74804 -0.90844,0.96096 -2.32843,0.65168 -3.38715,0.15154 -1.77304,-0.79134 -3.15168,-2.31517 -3.97418,-4.04411 -0.68428,-0.9603 -0.99852,-2.1395 -1.40959,-3.23822 -1.78664,-5.59977 -1.62535,-11.63767 -0.649,-17.37507 0.79158,-4.23477 2.15873,-8.38724 4.52838,-12.02934 1.08732,-1.58677 2.82664,-3.20692 4.90968,-2.84364 1.1296,0.10566 1.91895,1.03601 2.22299,2.06941 1.0646,2.44555 2.2485,5.08207 4.53967,6.6168 2.04518,1.36098 4.7964,0.58046 6.51587,-0.95231 2.3257,-1.94097 3.47681,-4.90557 3.88011,-7.83951 0.38042,-2.46396 0.73527,-4.99062 1.69634,-7.25492 0.47813,-1.34776 1.24068,-2.58407 1.8335,-3.86464 0.23484,-1.07685 -0.83617,-1.71186 -1.45375,-2.38049 -2.22262,-2.94889 -2.97721,-6.65856 -3.83879,-10.17119 -0.98494,-4.31707 -1.40607,-8.7568 -1.19243,-13.18148 0.10456,-3.01077 0.32651,-6.08249 1.09201,-9.03529 0.71042,-1.63021 2.33207,-2.86417 2.42267,-4.75449 0.22582,-2.11586 -0.21586,-4.47212 -1.7177,-6.0504 -0.54097,-0.42719 -1.25443,-0.55328 -1.92879,-0.52772 z" />
  <path
     id="polyline118"
     style="fill:none;stroke:#000000;stroke-width:0.478744"
     d="m 51.478516,226.97266 c -10.478178,0.0487 -20.958935,-0.025 -31.435547,0.0469 -2.133275,0.32293 -3.346171,2.34778 -4.232912,4.1096 -1.340296,2.61059 -2.220183,5.56632 -1.812796,8.52221 0.327167,4.14521 1.735893,8.18554 1.630676,12.32442 -0.243913,2.41773 -0.778532,4.80245 -1.344668,7.16285 -1.238305,4.84263 -3.928579,9.14001 -6.7047024,13.20596 -2.6656662,3.8754 -5.2271424,7.90461 -6.65612435,12.42207 -2.30151555,7.06231 -2.34197165,14.65304 -1.4750352,21.96521 1.93138935,15.07282 9.67864185,29.30762 21.29296795,39.11025 5.449177,4.64935 11.718282,8.32167 18.410016,10.86884 6.587884,-5.15339 9.984222,-14.06778 8.39852,-22.2927 -0.672145,-4.59 -1.908941,-9.07747 -3.463774,-13.44264 -0.959365,-3.03004 -1.933025,-6.37326 -1.157151,-9.58008 0.160873,-0.5915 0.903654,-1.3748 1.480217,-0.74122 0.961957,0.92533 1.492724,2.21729 2.539934,3.07287 1.821132,1.78796 4.674519,2.63217 7.088485,1.5963 3.8426,-1.4049 6.516016,-4.83251 8.216957,-8.42317 3.138889,-6.68745 4.86769,-14.19587 3.990016,-21.59205 -0.473178,-4.10632 -1.739425,-8.2898 -4.569135,-11.40702 -1.382782,-1.47529 -3.042589,-2.87711 -5.051413,-3.35631 -1.670804,-0.37952 -3.473095,0.23748 -4.580649,1.54124 -0.980597,1.03631 -2.066463,2.07945 -3.512259,2.38405 -0.917449,0.2469 -2.064571,0.41262 -2.873889,-0.18115 -0.499441,-1.04324 -0.04105,-2.23592 0.07604,-3.32281 0.723601,-3.5519 2.740357,-6.5795 4.684943,-9.54053 2.839876,-3.99045 4.382848,-8.75849 5.025585,-13.58012 -0.490698,-0.26071 -1.303542,2.3e-4 -1.831492,-0.33583 -0.791473,-1.60069 -1.001952,-3.45983 -0.529297,-5.1875 0.329285,-1.66429 0.245692,-3.37439 -0.154293,-5.01688 -0.201388,-0.85627 -0.352695,-1.8915 0.379651,-2.5475 0.990674,-1.35892 2.259874,-2.81671 2.176986,-4.60164 -0.241307,-1.48072 -1.594966,-2.55822 -2.935849,-3.04149 -0.343647,-0.10779 -0.709946,-0.15522 -1.07001,-0.1421 z" />
  <path
     id="polyline138"
     style="fill:none;stroke:#000000;stroke-width:0.478744"
     d="m 265.62577,5.5828446 c -3.52199,0.472025 -6.07438,3.259453 -9.32227,4.4316404 -1.13111,0.332285 -2.04194,-0.6577034 -3.07962,-0.9287214 -1.57938,-0.577229 -3.27798,-0.691798 -4.92119,-1.003487 -2.14601,-0.280173 -4.3973,-0.531432 -6.50896,0.06697 -2.14149,0.764582 -3.45436,2.8715004 -5.56161,3.6721874 -0.45404,0.03792 -1.31138,0.347337 -1.50479,-0.297187 -0.009,-0.586007 0.1591,-1.132904 0.23633,-1.7421884 -3.31787,0.8340174 -6.70137,2.1401894 -9.01172,4.7773434 -2.74524,3.006162 -4.25926,7.392101 -3.14452,11.400918 0.60711,1.885166 2.50827,3.214358 4.48827,3.14791 1.11707,0.0718 2.25066,-0.04582 3.23781,-0.606199 2.35641,-1.241742 4.50303,-3.084347 7.18797,-3.573488 1.90053,-0.220005 4.08696,1.046059 4.21484,3.091797 0.25639,2.196355 -0.27122,4.417838 -1.00101,6.476595 -0.9183,2.175563 -2.79224,4.185603 -5.20797,4.556608 -1.08715,-0.201919 -1.66577,-1.29855 -2.46188,-1.965859 -1.84922,-1.959074 -3.74363,-4.062186 -6.35376,-4.990531 -2.25573,-0.927981 -5.15976,-0.90801 -6.97007,0.922178 -2.44579,2.320087 -3.01075,6.075002 -2.09937,9.222572 0.98882,3.728621 2.87326,7.216768 5.48078,10.063593 0.30128,1.073151 1.63169,1.017816 2.47746,0.711585 2.69161,-0.532588 5.58964,-0.561336 7.98472,-2.066305 2.43034,-1.218311 4.66636,-2.995762 7.39134,-3.496842 0.79428,0.498687 1.31771,1.483111 2.32187,1.663864 1.81837,0.341302 3.52573,-0.753992 4.95156,-1.747849 1.29825,-0.935385 2.19302,-2.275588 2.95228,-3.656535 0.31238,-0.412228 0.66074,-1.159865 1.25671,-1.07784 1.2246,0.5103 1.26693,2.166623 2.44275,2.757935 1.71785,0.95324 3.62952,1.539117 5.54069,1.973529 1.17146,0.270251 2.56042,0.419597 3.49703,-0.504901 2.16159,-2.174373 2.71256,-5.586863 1.9242,-8.477843 -0.50788,-1.653876 -2.08398,-2.647742 -2.79139,-4.18622 0.57367,-1.080338 1.66655,-1.760415 2.35278,-2.768423 1.26761,-1.631252 2.58477,-3.258789 3.54828,-5.092878 0.7237,-1.366714 0.55969,-2.931928 0.36597,-4.402556 -0.18055,-0.809166 0.29825,-1.501842 0.92687,-1.950998 1.81198,-1.52278 3.57031,-3.111712 5.18891,-4.839832 0.75893,-0.929825 1.66022,-2.101109 1.24621,-3.371136 -0.4175,-1.705905 -1.72884,-3.3164534 -3.46886,-3.7538634 -1.32968,-0.297535 -2.77956,0.08192 -3.89769,-0.890973 -1.16866,-0.775911 -2.43528,-1.646725 -3.90895,-1.544574 z" />
  <path
     id="polyline142"
     style="fill:none;stroke:#000000;stroke-width:0.478744"
     d="m 223.11897,2.0133865 c -2.7169,0.097252 -5.44275,0.1021085 -8.15414,0.2565345 -2.26827,0.3655758 -4.29557,1.7047306 -5.65902,3.5347778 -3.29569,3.8316578 -5.49972,8.5421392 -9.28803,11.9599292 -2.25405,2.249232 -4.58417,4.448547 -6.62927,6.893289 -0.7182,0.339629 -0.70925,1.254283 -1.1652,1.821588 -0.95447,1.838934 -1.606,4.007464 -3.44889,5.186773 -0.44054,0.42422 -1.06548,0.538711 -1.59825,0.232709 -1.24774,-0.424265 -2.70704,-0.851348 -3.96931,-0.29771 -0.60571,0.478657 0.0611,1.151433 0.3086,1.625 0.20027,1.541979 0.17372,3.106166 0.33223,4.6551 0.25942,3.35422 0.38826,6.747191 -0.0321,10.110414 -0.11124,0.996314 -0.23935,2.243269 -1.23195,2.867737 -1.21424,0.905806 -2.88827,0.880719 -4.20936,0.223462 -3.27339,-1.223217 -6.42008,-3.270439 -10.03908,-3.151773 -1.74467,0.01084 -3.34365,1.206049 -3.88617,2.85756 -0.65401,2.007713 -0.76175,4.165507 -0.6875,6.263672 0.1832,2.89053 0.88115,5.776478 2.15093,8.382102 1.57309,2.666814 5.45921,3.870655 8.0957,2.058201 2.02217,-1.178755 3.83141,-2.781594 6.05415,-3.577022 1.06655,-0.213908 2.34369,-0.07026 3.11329,0.751953 0.76052,0.232858 0.96052,1.103593 1.31447,1.73258 0.55754,1.436876 1.19876,2.894383 1.34652,4.441674 0.11322,0.844946 -0.42767,1.66153 -1.28599,1.798402 -2.06071,0.596007 -4.20874,-0.133912 -6.22165,-0.364114 -1.96881,-0.353793 -4.29457,-0.732424 -5.97061,0.6566 -1.59907,1.192509 -2.28215,3.490408 -1.39264,5.316358 0.52439,1.434093 1.28787,2.775096 2.23333,3.973187 4.12808,0.02492 8.30206,-0.319341 12.39142,0.38953 2.71684,0.557761 5.62245,1.53601 8.34381,0.46186 3.37271,-1.12795 6.19462,-3.564095 9.69055,-4.353343 0.61303,0.02319 1.25005,-0.636096 0.75977,-1.185547 -3.21999,-2.781028 -5.4914,-6.615861 -6.45508,-10.755859 -0.29193,-1.354367 -0.26752,-3.20399 0.56641,-4.544922 0.52226,-1.23663 1.93621,-1.99144 3.25046,-1.632054 1.22392,0.20606 2.33293,0.828963 3.32766,1.54807 -0.19532,0.653326 0.53,1.004104 1.08008,0.945312 0.73556,0.886491 1.67482,1.568141 2.24414,2.580079 0.57116,0.306153 1.01016,0.739089 1.46979,1.193154 0.6766,0.585666 1.39902,1.227901 2.35432,1.17638 2.69323,0.26715 5.16281,-1.38071 6.87254,-3.319553 2.15516,-2.471855 2.96601,-5.800838 3.2166,-8.99619 0.16758,-2.15222 -0.27496,-4.494961 -1.88474,-6.048712 -2.28013,-2.336156 -6.08982,-2.624876 -8.91564,-1.151541 -1.95013,0.911292 -3.69349,2.20778 -5.62823,3.133979 -0.93084,0.165964 -2.22451,0.414122 -2.78542,-0.587127 -0.51913,-1.069101 -0.34547,-2.341461 -0.19365,-3.482897 0.41124,-2.358555 1.89314,-4.673014 3.76016,-6.151656 1.41906,-1.188816 3.17977,-1.85556 4.95693,-2.297087 0.37019,-0.57862 0.27431,-1.300547 0.16211,-1.90625 0.74195,-1.294054 0.22812,-2.800554 0.26367,-4.183594 0.48441,-1.014973 1.53941,-1.649371 2.04051,-2.671984 0.79475,-1.264249 0.49531,-2.788609 0.4626,-4.16511 -0.0191,-1.168214 1.04778,-1.892879 1.61901,-2.800781 1.00026,-1.226297 1.75351,-2.677431 1.90893,-4.270889 0.42372,-2.264921 0.85649,-4.63603 2.20203,-6.55618 0.59364,-0.635837 1.5872,-0.465795 2.3747,-0.588388 1.99533,-0.03494 4.20829,0.0679 5.85618,-1.266826 0.93749,-0.701448 1.93031,-1.4791282 3.16275,-1.4767343 1.5444,-0.1679854 3.12984,-0.7752892 4.02814,-2.1107433 0.91087,-1.1029864 1.12618,-2.8080222 0.19007,-3.9665849 -0.6475,-1.0097657 -2.07899,-1.5219169 -3.16914,-0.9285137 -1.1,-0.737338 -2.49074,-0.2976665 -3.72211,-0.3752953 -1.96047,0.045671 -3.92094,0.091343 -5.88141,0.137014 z" />
  <path
     id="polyline144"
     style="fill:none;stroke:#000000;stroke-width:0.478744"
     d="m 139.26131,-2.4561582 c -1.60698,0.2394203 -2.98032,1.4231888 -3.625,2.890625 -0.75569,0.49720098 -1.79263,0.49296718 -2.43186,1.2138711 -1.11707,1.1059878 -0.72578,2.8181374 -0.40212,4.1728477 0.27232,1.0852696 -0.73684,1.8598596 -0.88915,2.8788686 -0.51073,1.7623628 0.44755,3.4742688 0.79149,5.1719128 0.45982,1.595794 -0.57398,3.066392 -0.63668,4.642666 -0.16489,1.125687 0.26634,2.196022 0.78902,3.163974 0.62037,1.459472 0.0907,3.126626 0.77149,4.580078 0.31769,0.996485 1.27443,1.571655 1.77148,2.439453 -0.0774,0.960891 -1.31579,0.968043 -1.96273,0.573258 -1.59333,-0.726454 -3.4025,-1.578812 -5.16907,-0.916461 -1.54084,0.351563 -2.99308,1.105701 -4.59476,1.169375 -0.91034,0.417307 -0.8969,1.520291 -0.67774,2.347657 0.0675,1.605132 -0.90971,3.532485 0.48047,4.876953 1.60517,1.744344 4.37985,2.017438 6.45508,0.998047 0.86339,-0.392096 1.97055,0.144885 2.35938,0.947265 0.11894,0.412283 0.53424,0.685088 0.36277,1.159343 -0.13692,2.410228 -1.98178,4.518457 -4.16834,5.386664 -1.642,0.651073 -3.78281,0.353115 -4.8056,-1.210134 -1.09103,-1.469492 -2.29194,-2.937715 -3.98608,-3.733902 -2.70089,-1.449926 -6.37521,-1.662448 -8.81084,0.431141 -2.96475,2.440382 -4.24719,6.339088 -4.65443,10.041716 -0.35525,3.281159 0.20889,6.716074 1.90041,9.569704 0.0953,0.769771 0.93128,1.070506 1.27953,1.702405 2.29989,2.694938 6.0569,4.22312 9.56849,3.402793 2.27612,-0.408327 4.31058,-1.750108 5.70471,-3.577855 1.28935,-1.309274 2.7999,-2.442166 4.46289,-3.224609 2.23676,-0.619934 4.50604,1.147177 5.22362,3.200138 0.69978,2.171959 0.41787,4.505257 0.1991,6.732436 -0.23745,1.301587 -0.4835,2.758842 -1.42467,3.747113 -0.45211,0.251001 -0.9631,-0.191352 -1.44888,-0.19405 -2.03045,-0.432728 -4.05225,-1.114373 -6.13848,-1.14246 -0.75835,0.107149 -1.51623,0.244252 -2.28569,0.166589 0.25075,0.569405 -0.1819,0.751257 -0.55508,1.03946 -1.74067,1.361147 -2.26595,3.921569 -1.33164,5.901946 0.37016,0.894236 0.77045,1.817587 1.26767,2.629331 0.91001,0.704397 2.07613,0.1039 3.0972,0.09452 4.77572,-0.6497 9.54874,-1.24222 14.33656,-1.357749 5.03301,-0.257139 10.07128,-0.415841 15.11107,-0.430553 -1.19684,-1.043183 -2.65848,-1.7996 -3.67591,-3.034068 -0.46134,-0.83122 -0.9502,-1.701967 -1.12096,-2.647573 -0.0613,-1.161495 1.34755,-1.572224 2.2832,-1.357422 2.95784,0.289171 5.9423,1.351309 8.91992,0.666016 1.85119,-0.374489 3.64046,-1.721204 3.91378,-3.68801 0.46984,-2.524929 -0.71418,-4.946644 -1.59852,-7.240525 -0.69049,-1.718489 -2.05416,-3.16912 -3.82883,-3.770223 -2.28873,-0.901352 -4.96088,-0.455871 -6.93739,0.972708 -1.66826,0.977631 -3.18795,2.238306 -4.94747,3.040503 -1.62032,0.357935 -3.12409,-0.98679 -3.45729,-2.512407 -1.208,-3.390655 -1.66166,-7.155998 -0.73089,-10.667266 0.15608,-0.755564 0.95784,-0.960253 1.62194,-0.829263 2.78765,0.209616 5.18756,1.806946 7.75178,2.762842 1.62159,0.679893 3.42162,1.155113 5.16707,0.672747 2.27416,-0.471865 4.32377,-2.219493 4.76457,-4.559466 0.42625,-2.051783 0.46976,-4.162861 0.55907,-6.250389 0.0513,-3.909049 -0.51478,-7.826647 -0.53368,-11.687111 -0.22112,-0.913038 -1.3449,-0.669444 -2.04492,-0.695312 -1.3836,0.09 -2.65394,0.789571 -4.04297,0.824219 -0.98296,-1.19288 -1.34561,-2.804439 -2.51562,-3.869141 -1.08679,-1.151156 -2.64736,-1.914215 -3.37064,-3.367295 -0.33461,-1.648308 -0.35002,-3.580268 -1.72313,-4.777504 -1.24597,-1.533076 -1.55581,-3.574517 -1.99222,-5.44449 -0.22148,-1.547366 -0.18493,-3.2115828 0.48638,-4.6353198 0.38406,-0.6990767 1.24641,-1.2256156 2.07258,-1.0253004 1.83548,0.044995 3.94789,0.62298 5.5407,-0.5957937 0.51504,-0.352 0.56506,-1.3260009 1.30469,-1.234375 0.8934,-0.078537 2.04588,0.057964 2.59294,-0.8030976 0.89487,-0.7148548 1.64939,-1.8754519 1.22151,-3.0543243 -0.42444,-1.0925188 -1.36492,-2.2321009 -2.61523,-2.2988281 -0.46674,-0.055104 -0.93132,0.2189283 -1.35352,0.2304687 -1.53495,-0.7061629 -3.26408,-0.2495307 -4.88738,-0.4134116 -4.25237,-0.062009 -8.50375,-0.2365108 -12.75715,-0.1959634 z" />
  <path
     id="polyline146"
     style="fill:none;stroke:#000000;stroke-width:0.478744"
     d="M 66.220107,-0.46807116 C 63.787574,0.015755 62.328119,2.2483009 61.081435,4.1901319 c -0.860387,1.3579763 -1.297244,3.0514765 -0.846218,4.6173065 0.485066,2.5282006 0.551729,5.1082926 0.810336,7.6647106 0.10319,1.790623 0.202534,3.567143 -0.243414,5.27853 -0.229166,0.720046 -0.896344,1.199796 -1.548829,1.519531 -0.932582,0.170276 -1.021673,1.341107 -0.884765,2.107422 0.08514,2.007538 -0.746955,4.182423 0.274777,6.063551 1.058484,1.970695 3.611831,2.868479 5.697671,2.111175 2.618165,-0.530846 5.1238,-1.654701 7.803185,-1.837794 0.705082,0.02879 1.492693,0.570126 1.288747,1.359122 -0.06843,2.299446 -0.239078,4.633396 -0.479259,6.951068 -0.251568,1.760729 -1.379495,3.664095 -3.292153,3.901706 -1.63308,0.04417 -3.041367,-0.988889 -4.410824,-1.746994 -2.192314,-1.310134 -4.283611,-2.991176 -6.82941,-3.540115 -2.309982,-0.223541 -4.221701,1.724402 -4.983334,3.743056 -1.052422,2.76616 -0.748113,5.796691 -0.599669,8.686808 0.180052,2.925632 0.776751,6.056605 2.909336,8.226444 1.421517,1.487787 3.62656,1.957524 5.59965,1.551916 2.243724,-0.302578 4.150025,-1.588244 6.134564,-2.567599 1.122599,-0.450251 2.359492,-0.857766 3.572266,-0.707031 0.538582,0.634648 0.50828,1.574044 0.785255,2.339398 0.762034,3.161955 0.724861,6.441289 0.460838,9.662555 -0.191422,2.361526 -0.735927,4.91759 -1.964843,7.050781 -0.329853,0.696461 -0.794245,1.313201 -1.263672,1.919922 0.456236,1.283523 1.797526,1.798935 2.990445,2.162515 4.668326,1.791899 9.567565,3.038686 14.54515,3.547371 3.176296,0.206544 6.347618,-0.345422 9.481983,-0.588792 1.134814,-0.400105 1.105359,-1.906068 0.463845,-2.722342 -0.596434,-0.997899 -1.367191,-2.433033 -0.455279,-3.478158 0.79738,-0.970815 2.148017,-0.629654 3.187033,-0.353151 1.818793,0.36066 3.603863,0.974404 5.452833,1.129823 2.08155,-0.157768 3.39349,-2.165105 3.9139,-4.003867 0.9505,-3.054653 1.05768,-6.331616 0.6447,-9.486368 -0.67071,-3.52831 -3.76155,-6.633053 -7.43397,-6.784888 -1.84021,-0.11384 -3.509542,0.808162 -4.953754,1.847807 -1.657619,1.094649 -3.016009,2.557163 -4.391624,3.96819 -2.358491,1.920368 -6.05982,1.705455 -8.285482,-0.32812 -2.397592,-2.015273 -3.454682,-5.230882 -3.359881,-8.297466 0.02977,-3.043512 0.831898,-6.24247 2.841676,-8.670623 1.02789,-1.259409 2.777396,-1.802157 4.339581,-1.353306 1.892,0.351495 3.478322,1.646797 4.474262,3.256334 1.203689,1.682406 3.107969,2.91361 5.214951,2.964939 3.941441,0.291801 7.620381,-2.489533 9.067611,-6.054938 0.93488,-2.116741 0.85059,-4.876409 -0.90763,-6.550928 -1.54448,-1.609739 -4.15308,-2.201564 -6.147949,-1.089121 -0.745754,0.278827 -1.648375,0.160859 -2.283964,-0.316083 0.05714,-0.984507 0.4106,-1.972121 0.239084,-2.978418 -0.09956,-0.758265 -0.130292,-1.520756 -0.06135,-2.283301 -2.980861,0.24967 -6.067699,-0.165646 -8.767579,-1.488281 -0.858222,-0.862982 -0.787294,-2.214984 -1.128906,-3.316406 -0.284347,-1.396757 -1.021362,-2.715693 -2.2112,-3.515389 -1.170341,-0.978246 -2.68013,-1.624396 -3.583891,-2.879659 C 81.233226,18.735547 81.482328,16.277261 80.174334,14.32876 79.571179,12.99395 78.43962,11.748332 78.710342,10.170601 79.277208,9.3531288 80.397187,9.1655911 81.319717,8.9850538 83.916532,8.637264 86.78308,9.2886385 89.144954,7.8722209 89.922183,7.3582745 90.631593,6.5322667 91.66542,6.6666945 93.186607,6.4962419 94.943816,6.2438739 95.956003,4.9767784 97.05062,3.2170003 95.673622,0.81557212 93.770725,0.37847962 92.75067,-0.03089193 91.629377,0.53276887 90.634788,0.08009692 89.256351,-0.29315319 87.810949,-0.01079537 86.401851,-0.11574991 79.674681,-0.19751027 72.945913,-0.49779849 66.220107,-0.46807116 Z" />
  <path
     id="polyline148"
     style="fill:none;stroke:#000000;stroke-width:0.478744"
     d="M 26.154297,-0.23242188 C 24.859119,-0.07215101 23.580917,0.57888697 22.265328,0.16788618 20.18945,-0.15152371 17.956532,-0.56333754 15.972871,0.38195889 14.488366,0.89172751 13.081157,1.9459028 11.454585,1.8353509 9.8768527,1.5804876 8.0571168,1.0019746 6.6132812,1.9882812 4.9215263,3.6363056 4.9814174,6.3552984 3.1503906,7.9101562 0.88597102,10.322616 -0.41620011,13.815244 0.234375,17.115234 c 0.70810128,2.38528 2.9672205,3.841517 4.6752048,5.419262 2.3034398,2.040739 4.1881483,4.49238 6.2071312,6.802436 2.870086,3.473866 5.697124,7.039894 7.826648,11.026349 0.242277,0.651068 0.488086,1.276761 0.783203,1.900391 0.666274,2.410314 1.312121,4.873817 1.095704,7.416016 -0.518929,0.757177 -1.272676,1.457765 -1.251685,2.454874 -0.165183,1.842218 0.267239,3.709526 0.927994,5.4215 1.116312,2.444065 2.862334,4.534479 4.553386,6.59751 3.274001,3.769682 7.049216,7.076504 10.96502,10.15971 3.539674,2.666977 7.664296,4.398462 11.767157,5.99559 0.829186,0.522074 1.883876,0.01536 2.22654,-0.841409 1.392509,-2.31572 2.351214,-4.8945 2.712261,-7.578782 0.538296,-4.4583 0.640738,-9.061671 -0.590127,-13.421884 -0.225764,-0.772953 -0.243154,-1.645295 -0.840241,-2.256043 -1.070409,-1.659267 -3.342869,-1.855852 -5.089446,-1.343566 -0.487028,0.289192 -1.329791,-0.321874 -1.460937,0.371093 -1.655368,0.519141 -3.123216,1.582526 -4.71875,2.289063 -0.982999,0.374738 -2.054523,0.61674 -3.107422,0.546875 -1.60249,-0.202152 -2.391679,-1.862474 -2.863118,-3.218709 -0.649479,-2.223299 -0.649206,-4.630331 -0.732586,-6.978947 0.01828,-1.895438 0.02496,-4.136295 1.548829,-5.503516 0.752873,-0.647833 1.613912,0.16721 2.331598,0.456692 2.984756,1.599715 5.663024,4.045902 9.115391,4.563844 1.548548,0.157485 3.083338,-0.430407 4.330354,-1.303739 0.802573,-0.161675 0.94106,-1.107586 1.486328,-1.597656 1.72508,-2.512185 1.565851,-5.685667 1.81102,-8.567176 0.04415,-1.448806 0.350744,-2.975637 -0.141716,-4.375683 -0.831673,-2.101292 -3.32491,-3.016162 -5.440788,-2.658704 -2.830931,0.476529 -5.509913,1.638326 -8.357422,2.037109 -0.955419,-0.04723 -1.512643,-1.107355 -1.212237,-1.964961 0.173318,-1.822128 0.221059,-3.653087 0.163409,-5.482304 -1.243209,0.30403 -2.236456,-0.607734 -3.305165,-1.055622 -3.819697,-1.939456 -7.706603,-3.853035 -11.176975,-6.309291 -1.550339,-1.027354 -3.293666,-1.856198 -5.181543,-1.932961 -0.683766,-0.12125 -1.45438,-0.151921 -2.068739,-0.430642 -0.154798,-0.407557 -0.407674,-0.735751 -0.162551,-1.203168 0.431683,-1.367644 1.524959,-2.48515 2.72731,-3.2057963 1.33863,-0.3547109 2.81348,-0.1356781 4.057474,-0.8607718 1.91806,-0.9615243 3.725607,-2.2155382 5.19219,-3.7888194 0.797436,-0.8143414 1.187861,-2.1445428 0.477977,-3.1373817 -0.720204,-1.07737913 -2.054255,-1.83979653 -3.360759,-1.78843768 z" />
</svg>
